<svg width="512" height="512" viewBox="0 0 512 512" fill="none" xmlns="http://www.w3.org/2000/svg">
<rect width="512" height="512" rx="156" fill="white"/>
<rect width="512" height="512" rx="156" fill="url(#paint0_radial_1_9677)"/>
<g filter="url(#filter0_i_1_9677)">
<path d="M248.943 231.61L248.943 348.395H285.709V231.61H248.943ZM323.676 231.61V299.855C323.676 305.782 321.834 310.348 318.149 313.552C314.625 316.916 310.219 318.598 304.933 318.598C301.248 318.598 297.964 317.797 295.08 316.195C292.197 314.753 289.874 312.671 288.112 309.947C286.51 307.224 285.709 303.86 285.709 299.855L271.531 306.102C271.531 315.394 273.533 323.324 277.538 329.892C281.543 336.62 286.99 341.747 293.879 345.271C300.767 348.956 308.537 350.798 317.188 350.798C325.358 350.798 332.647 348.956 339.055 345.271C345.623 341.587 350.83 336.46 354.674 329.892C358.519 323.324 360.442 315.474 360.442 306.343V231.61L323.676 231.61ZM398.409 231.61V299.855C398.409 305.782 396.566 310.348 392.882 313.552C389.357 316.916 384.952 318.598 379.665 318.598C375.981 318.598 372.697 317.797 369.813 316.195C366.93 314.753 364.607 312.671 362.844 309.947C361.242 307.224 360.442 303.86 360.442 299.855L339.295 302.738C339.616 312.671 341.939 321.161 346.264 328.21C350.749 335.419 356.597 340.946 363.806 344.791C371.175 348.796 379.425 350.798 388.556 350.798C397.528 350.798 405.457 348.876 412.346 345.031C419.395 341.346 424.922 335.98 428.927 328.931C433.092 322.042 435.174 313.712 435.174 303.94V231.61H398.409Z" fill="black"/>
</g>
<g filter="url(#filter1_i_1_9677)">
<path d="M78.7593 286.078V169.292H115.525V286.078H78.7593ZM153.492 286.078V217.833C153.492 211.905 151.65 207.34 147.965 204.136C144.441 200.772 140.035 199.09 134.749 199.09C131.064 199.09 127.78 199.891 124.897 201.493C122.013 202.934 119.69 205.017 117.928 207.74C116.326 210.464 115.525 213.828 115.525 217.833L101.347 211.585C101.347 202.293 103.35 194.364 107.355 187.795C111.36 181.067 116.807 175.941 123.695 172.416C130.584 168.732 138.353 166.889 147.004 166.889C155.174 166.889 162.463 168.732 168.871 172.416C175.439 176.101 180.646 181.227 184.491 187.795C188.336 194.364 190.258 202.213 190.258 211.345V286.078H153.492ZM228.225 286.078V217.833C228.225 211.905 226.383 207.34 222.698 204.136C219.174 200.772 214.768 199.09 209.482 199.09C205.797 199.09 202.513 199.891 199.63 201.493C196.746 202.934 194.423 205.017 192.661 207.74C191.059 210.464 190.258 213.828 190.258 217.833L169.112 214.949C169.432 205.017 171.755 196.526 176.08 189.478C180.566 182.269 186.413 176.742 193.622 172.897C200.991 168.892 209.242 166.889 218.373 166.889C227.344 166.889 235.274 168.812 242.162 172.657C249.211 176.341 254.738 181.708 258.743 188.757C262.908 195.645 264.991 203.976 264.991 213.748V286.078H228.225Z" fill="black"/>
</g>
<defs>
<filter id="filter0_i_1_9677" x="248.943" y="231.61" width="186.23" height="119.188" filterUnits="userSpaceOnUse" color-interpolation-filters="sRGB">
<feFlood flood-opacity="0" result="BackgroundImageFix"/>
<feBlend mode="normal" in="SourceGraphic" in2="BackgroundImageFix" result="shape"/>
<feColorMatrix in="SourceAlpha" type="matrix" values="0 0 0 0 0 0 0 0 0 0 0 0 0 0 0 0 0 0 127 0" result="hardAlpha"/>
<feOffset/>
<feGaussianBlur stdDeviation="40.0498"/>
<feComposite in2="hardAlpha" operator="arithmetic" k2="-1" k3="1"/>
<feColorMatrix type="matrix" values="0 0 0 0 1 0 0 0 0 1 0 0 0 0 1 0 0 0 0.08 0"/>
<feBlend mode="normal" in2="shape" result="effect1_innerShadow_1_9677"/>
</filter>
<filter id="filter1_i_1_9677" x="78.7598" y="166.89" width="186.23" height="119.188" filterUnits="userSpaceOnUse" color-interpolation-filters="sRGB">
<feFlood flood-opacity="0" result="BackgroundImageFix"/>
<feBlend mode="normal" in="SourceGraphic" in2="BackgroundImageFix" result="shape"/>
<feColorMatrix in="SourceAlpha" type="matrix" values="0 0 0 0 0 0 0 0 0 0 0 0 0 0 0 0 0 0 127 0" result="hardAlpha"/>
<feOffset/>
<feGaussianBlur stdDeviation="40.0498"/>
<feComposite in2="hardAlpha" operator="arithmetic" k2="-1" k3="1"/>
<feColorMatrix type="matrix" values="0 0 0 0 1 0 0 0 0 1 0 0 0 0 1 0 0 0 0.08 0"/>
<feBlend mode="normal" in2="shape" result="effect1_innerShadow_1_9677"/>
</filter>
<radialGradient id="paint0_radial_1_9677" cx="0" cy="0" r="1" gradientUnits="userSpaceOnUse" gradientTransform="translate(256 256) rotate(135.516) scale(313.968)">
<stop stop-color="#1A00FF" stop-opacity="0.1"/>
<stop offset="1" stop-color="white" stop-opacity="0"/>
</radialGradient>
</defs>
</svg>
