<svg width="326" height="36" viewBox="0 0 326 36" fill="none" xmlns="http://www.w3.org/2000/svg">
<g filter="url(#filter0_i_1840_395)">
<path d="M0.592 35V11.672H7.936V35H0.592ZM15.52 35V21.368C15.52 20.184 15.152 19.272 14.416 18.632C13.712 17.96 12.832 17.624 11.776 17.624C11.04 17.624 10.384 17.784 9.808 18.104C9.232 18.392 8.768 18.808 8.416 19.352C8.096 19.896 7.936 20.568 7.936 21.368L5.104 20.12C5.104 18.264 5.504 16.68 6.304 15.368C7.104 14.024 8.192 13 9.568 12.296C10.944 11.56 12.496 11.192 14.224 11.192C15.856 11.192 17.312 11.56 18.592 12.296C19.904 13.032 20.944 14.056 21.712 15.368C22.48 16.68 22.864 18.248 22.864 20.072V35H15.52ZM30.448 35V21.368C30.448 20.184 30.08 19.272 29.344 18.632C28.64 17.96 27.76 17.624 26.704 17.624C25.968 17.624 25.312 17.784 24.736 18.104C24.16 18.392 23.696 18.808 23.344 19.352C23.024 19.896 22.864 20.568 22.864 21.368L18.64 20.792C18.704 18.808 19.168 17.112 20.032 15.704C20.928 14.264 22.096 13.16 23.536 12.392C25.008 11.592 26.656 11.192 28.48 11.192C30.272 11.192 31.856 11.576 33.232 12.344C34.64 13.08 35.744 14.152 36.544 15.56C37.376 16.936 37.792 18.6 37.792 20.552V35H30.448ZM52.7222 35.48C50.5782 35.48 48.6583 34.952 46.9622 33.896C45.2982 32.84 43.9702 31.4 42.9782 29.576C42.0182 27.752 41.5382 25.672 41.5382 23.336C41.5382 21 42.0182 18.92 42.9782 17.096C43.9702 15.272 45.2982 13.832 46.9622 12.776C48.6583 11.72 50.5782 11.192 52.7222 11.192C54.2903 11.192 55.6983 11.496 56.9463 12.104C58.2263 12.712 59.2663 13.56 60.0663 14.648C60.8663 15.704 61.3143 16.92 61.4103 18.296V28.376C61.3143 29.752 60.8663 30.984 60.0663 32.072C59.2983 33.128 58.2743 33.96 56.9943 34.568C55.7143 35.176 54.2903 35.48 52.7222 35.48ZM54.2103 28.856C55.7783 28.856 57.0423 28.344 58.0023 27.32C58.9623 26.264 59.4423 24.936 59.4423 23.336C59.4423 22.248 59.2183 21.288 58.7703 20.456C58.3542 19.624 57.7463 18.984 56.9463 18.536C56.1783 18.056 55.2822 17.816 54.2582 17.816C53.2342 17.816 52.3222 18.056 51.5222 18.536C50.7542 18.984 50.1302 19.624 49.6502 20.456C49.2022 21.288 48.9782 22.248 48.9782 23.336C48.9782 24.392 49.2022 25.336 49.6502 26.168C50.0983 27 50.7223 27.656 51.5222 28.136C52.3222 28.616 53.2182 28.856 54.2103 28.856ZM59.1543 35V28.712L60.2583 23.048L59.1543 17.384V11.672H66.3542V35H59.1543ZM72.0051 35V11.672H79.3491V35H72.0051ZM79.3491 22.184L76.2771 19.784C76.8851 17.064 77.9091 14.952 79.3491 13.448C80.7891 11.944 82.7891 11.192 85.3491 11.192C86.4691 11.192 87.4451 11.368 88.2771 11.72C89.1411 12.04 89.8931 12.552 90.5331 13.256L86.1651 18.776C85.8451 18.424 85.4451 18.152 84.9651 17.96C84.4851 17.768 83.9411 17.672 83.3331 17.672C82.1171 17.672 81.1411 18.056 80.4051 18.824C79.7011 19.56 79.3491 20.68 79.3491 22.184ZM103.833 35.528C101.305 35.528 99.0493 35.016 97.0653 33.992C95.1133 32.936 93.5773 31.48 92.4573 29.624C91.3373 27.768 90.7773 25.672 90.7773 23.336C90.7773 21 91.3213 18.92 92.4093 17.096C93.5293 15.24 95.0333 13.784 96.9213 12.728C98.8093 11.672 100.937 11.144 103.305 11.144C105.609 11.144 107.641 11.64 109.401 12.632C111.161 13.624 112.537 15 113.529 16.76C114.553 18.52 115.065 20.536 115.065 22.808C115.065 23.224 115.033 23.672 114.969 24.152C114.937 24.6 114.857 25.128 114.729 25.736L94.6173 25.784V20.744L111.609 20.696L108.441 22.808C108.409 21.464 108.201 20.36 107.817 19.496C107.433 18.6 106.857 17.928 106.089 17.48C105.353 17 104.441 16.76 103.353 16.76C102.201 16.76 101.193 17.032 100.329 17.576C99.4973 18.088 98.8413 18.824 98.3613 19.784C97.9133 20.744 97.6893 21.912 97.6893 23.288C97.6893 24.664 97.9293 25.848 98.4093 26.84C98.9213 27.8 99.6253 28.552 100.521 29.096C101.449 29.608 102.537 29.864 103.785 29.864C104.937 29.864 105.977 29.672 106.905 29.288C107.833 28.872 108.649 28.264 109.353 27.464L113.385 31.496C112.233 32.84 110.841 33.848 109.209 34.52C107.577 35.192 105.785 35.528 103.833 35.528ZM134.018 35L125.858 22.904L133.97 11.672H142.178L132.386 24.296L132.626 21.272L142.658 35H134.018ZM119.09 35V0.151999H126.434V35H119.09ZM150.501 35L142.437 11.672H149.637L154.629 28.616L152.517 28.664L158.037 11.672H163.989L169.557 28.664L167.397 28.616L172.437 11.672H179.637L171.573 35H165.573L160.149 18.872H161.973L156.453 35H150.501ZM182.581 35V11.672H189.925V35H182.581ZM186.277 8.456C185.125 8.456 184.165 8.072 183.397 7.304C182.661 6.504 182.293 5.544 182.293 4.424C182.293 3.272 182.661 2.312 183.397 1.544C184.165 0.775999 185.125 0.391999 186.277 0.391999C187.429 0.391999 188.373 0.775999 189.109 1.544C189.845 2.312 190.213 3.272 190.213 4.424C190.213 5.544 189.845 6.504 189.109 7.304C188.373 8.072 187.429 8.456 186.277 8.456ZM207.097 35.528C204.569 35.528 202.313 35.016 200.329 33.992C198.377 32.936 196.841 31.48 195.721 29.624C194.601 27.768 194.041 25.672 194.041 23.336C194.041 21 194.585 18.92 195.673 17.096C196.793 15.24 198.297 13.784 200.185 12.728C202.073 11.672 204.201 11.144 206.569 11.144C208.873 11.144 210.905 11.64 212.665 12.632C214.425 13.624 215.801 15 216.793 16.76C217.817 18.52 218.329 20.536 218.329 22.808C218.329 23.224 218.297 23.672 218.233 24.152C218.201 24.6 218.121 25.128 217.993 25.736L197.881 25.784V20.744L214.873 20.696L211.705 22.808C211.673 21.464 211.465 20.36 211.081 19.496C210.697 18.6 210.121 17.928 209.353 17.48C208.617 17 207.705 16.76 206.617 16.76C205.465 16.76 204.457 17.032 203.593 17.576C202.761 18.088 202.105 18.824 201.625 19.784C201.177 20.744 200.953 21.912 200.953 23.288C200.953 24.664 201.193 25.848 201.673 26.84C202.185 27.8 202.889 28.552 203.785 29.096C204.713 29.608 205.801 29.864 207.049 29.864C208.201 29.864 209.241 29.672 210.169 29.288C211.097 28.872 211.913 28.264 212.617 27.464L216.649 31.496C215.497 32.84 214.105 33.848 212.473 34.52C210.841 35.192 209.049 35.528 207.097 35.528ZM225.15 35V2.024H232.494V35H225.15ZM219.87 17.912V11.672H237.774V17.912H219.87ZM252.541 35.528C250.013 35.528 247.757 35.016 245.773 33.992C243.821 32.936 242.285 31.48 241.165 29.624C240.045 27.768 239.485 25.672 239.485 23.336C239.485 21 240.029 18.92 241.117 17.096C242.237 15.24 243.741 13.784 245.629 12.728C247.517 11.672 249.645 11.144 252.013 11.144C254.317 11.144 256.349 11.64 258.109 12.632C259.869 13.624 261.245 15 262.237 16.76C263.261 18.52 263.773 20.536 263.773 22.808C263.773 23.224 263.741 23.672 263.677 24.152C263.645 24.6 263.565 25.128 263.437 25.736L243.325 25.784V20.744L260.317 20.696L257.149 22.808C257.117 21.464 256.909 20.36 256.525 19.496C256.141 18.6 255.565 17.928 254.797 17.48C254.061 17 253.149 16.76 252.061 16.76C250.909 16.76 249.901 17.032 249.037 17.576C248.205 18.088 247.549 18.824 247.069 19.784C246.621 20.744 246.397 21.912 246.397 23.288C246.397 24.664 246.637 25.848 247.117 26.84C247.629 27.8 248.333 28.552 249.229 29.096C250.157 29.608 251.245 29.864 252.493 29.864C253.645 29.864 254.685 29.672 255.613 29.288C256.541 28.872 257.357 28.264 258.061 27.464L262.093 31.496C260.941 32.84 259.549 33.848 257.917 34.52C256.285 35.192 254.493 35.528 252.541 35.528ZM279.078 35.528C276.678 35.528 274.502 35 272.55 33.944C270.598 32.888 269.062 31.432 267.942 29.576C266.822 27.72 266.262 25.64 266.262 23.336C266.262 21 266.822 18.92 267.942 17.096C269.094 15.24 270.646 13.784 272.598 12.728C274.55 11.672 276.742 11.144 279.174 11.144C280.998 11.144 282.662 11.464 284.166 12.104C285.702 12.712 287.062 13.64 288.246 14.888L283.542 19.592C282.998 18.984 282.358 18.536 281.622 18.248C280.918 17.96 280.102 17.816 279.174 17.816C278.118 17.816 277.174 18.056 276.342 18.536C275.542 18.984 274.902 19.624 274.422 20.456C273.974 21.256 273.75 22.2 273.75 23.288C273.75 24.376 273.974 25.336 274.422 26.168C274.902 27 275.558 27.656 276.39 28.136C277.222 28.616 278.15 28.856 279.174 28.856C280.134 28.856 280.982 28.696 281.718 28.376C282.486 28.024 283.142 27.544 283.686 26.936L288.342 31.64C287.126 32.92 285.75 33.896 284.214 34.568C282.678 35.208 280.966 35.528 279.078 35.528ZM307.019 35L298.859 22.904L306.971 11.672H315.179L305.387 24.296L305.627 21.272L315.659 35H307.019ZM292.091 35V0.151999H299.435V35H292.091ZM317.93 35V11.672H325.274V35H317.93ZM321.626 8.456C320.474 8.456 319.514 8.072 318.746 7.304C318.01 6.504 317.642 5.544 317.642 4.424C317.642 3.272 318.01 2.312 318.746 1.544C319.514 0.775999 320.474 0.391999 321.626 0.391999C322.778 0.391999 323.722 0.775999 324.458 1.544C325.194 2.312 325.562 3.272 325.562 4.424C325.562 5.544 325.194 6.504 324.458 7.304C323.722 8.072 322.778 8.456 321.626 8.456Z" fill="black"/>
</g>
<defs>
<filter id="filter0_i_1840_395" x="0.591797" y="0.152344" width="324.97" height="35.375" filterUnits="userSpaceOnUse" color-interpolation-filters="sRGB">
<feFlood flood-opacity="0" result="BackgroundImageFix"/>
<feBlend mode="normal" in="SourceGraphic" in2="BackgroundImageFix" result="shape"/>
<feColorMatrix in="SourceAlpha" type="matrix" values="0 0 0 0 0 0 0 0 0 0 0 0 0 0 0 0 0 0 127 0" result="hardAlpha"/>
<feOffset/>
<feGaussianBlur stdDeviation="8"/>
<feComposite in2="hardAlpha" operator="arithmetic" k2="-1" k3="1"/>
<feColorMatrix type="matrix" values="0 0 0 0 1 0 0 0 0 1 0 0 0 0 1 0 0 0 0.08 0"/>
<feBlend mode="normal" in2="shape" result="effect1_innerShadow_1840_395"/>
</filter>
</defs>
</svg>
