<svg width="97" height="12" viewBox="0 0 97 12" fill="none" xmlns="http://www.w3.org/2000/svg">
<g filter="url(#filter0_i_1820_515)">
<path d="M0.648 9V3.168H2.484V9H0.648ZM4.38 9V5.592C4.38 5.296 4.288 5.068 4.104 4.908C3.928 4.74 3.708 4.656 3.444 4.656C3.26 4.656 3.096 4.696 2.952 4.776C2.808 4.848 2.692 4.952 2.604 5.088C2.524 5.224 2.484 5.392 2.484 5.592L1.776 5.28C1.776 4.816 1.876 4.42 2.076 4.092C2.276 3.756 2.548 3.5 2.892 3.324C3.236 3.14 3.624 3.048 4.056 3.048C4.464 3.048 4.828 3.14 5.148 3.324C5.476 3.508 5.736 3.764 5.928 4.092C6.12 4.42 6.216 4.812 6.216 5.268V9H4.38ZM8.112 9V5.592C8.112 5.296 8.02 5.068 7.836 4.908C7.66 4.74 7.44 4.656 7.176 4.656C6.992 4.656 6.828 4.696 6.684 4.776C6.54 4.848 6.424 4.952 6.336 5.088C6.256 5.224 6.216 5.392 6.216 5.592L5.16 5.448C5.176 4.952 5.292 4.528 5.508 4.176C5.732 3.816 6.024 3.54 6.384 3.348C6.752 3.148 7.164 3.048 7.62 3.048C8.068 3.048 8.464 3.144 8.808 3.336C9.16 3.52 9.436 3.788 9.636 4.14C9.844 4.484 9.948 4.9 9.948 5.388V9H8.112ZM13.6806 9.12C13.1446 9.12 12.6646 8.988 12.2406 8.724C11.8246 8.46 11.4926 8.1 11.2446 7.644C11.0046 7.188 10.8846 6.668 10.8846 6.084C10.8846 5.5 11.0046 4.98 11.2446 4.524C11.4926 4.068 11.8246 3.708 12.2406 3.444C12.6646 3.18 13.1446 3.048 13.6806 3.048C14.0726 3.048 14.4246 3.124 14.7366 3.276C15.0566 3.428 15.3166 3.64 15.5166 3.912C15.7166 4.176 15.8286 4.48 15.8526 4.824V7.344C15.8286 7.688 15.7166 7.996 15.5166 8.268C15.3246 8.532 15.0686 8.74 14.7486 8.892C14.4286 9.044 14.0726 9.12 13.6806 9.12ZM14.0526 7.464C14.4446 7.464 14.7606 7.336 15.0006 7.08C15.2406 6.816 15.3606 6.484 15.3606 6.084C15.3606 5.812 15.3046 5.572 15.1926 5.364C15.0886 5.156 14.9366 4.996 14.7366 4.884C14.5446 4.764 14.3206 4.704 14.0646 4.704C13.8086 4.704 13.5806 4.764 13.3806 4.884C13.1886 4.996 13.0326 5.156 12.9126 5.364C12.8006 5.572 12.7446 5.812 12.7446 6.084C12.7446 6.348 12.8006 6.584 12.9126 6.792C13.0246 7 13.1806 7.164 13.3806 7.284C13.5806 7.404 13.8046 7.464 14.0526 7.464ZM15.2886 9V7.428L15.5646 6.012L15.2886 4.596V3.168H17.0886V9H15.2886ZM18.5013 9V3.168H20.3373V9H18.5013ZM20.3373 5.796L19.5693 5.196C19.7213 4.516 19.9773 3.988 20.3373 3.612C20.6973 3.236 21.1973 3.048 21.8373 3.048C22.1173 3.048 22.3613 3.092 22.5693 3.18C22.7853 3.26 22.9733 3.388 23.1333 3.564L22.0413 4.944C21.9613 4.856 21.8613 4.788 21.7413 4.74C21.6213 4.692 21.4853 4.668 21.3333 4.668C21.0293 4.668 20.7853 4.764 20.6013 4.956C20.4253 5.14 20.3373 5.42 20.3373 5.796ZM26.4583 9.132C25.8263 9.132 25.2623 9.004 24.7663 8.748C24.2783 8.484 23.8943 8.12 23.6143 7.656C23.3343 7.192 23.1943 6.668 23.1943 6.084C23.1943 5.5 23.3303 4.98 23.6023 4.524C23.8823 4.06 24.2583 3.696 24.7303 3.432C25.2023 3.168 25.7343 3.036 26.3263 3.036C26.9023 3.036 27.4103 3.16 27.8503 3.408C28.2903 3.656 28.6343 4 28.8823 4.44C29.1383 4.88 29.2663 5.384 29.2663 5.952C29.2663 6.056 29.2583 6.168 29.2423 6.288C29.2343 6.4 29.2143 6.532 29.1823 6.684L24.1543 6.696V5.436L28.4023 5.424L27.6103 5.952C27.6023 5.616 27.5503 5.34 27.4543 5.124C27.3583 4.9 27.2143 4.732 27.0223 4.62C26.8383 4.5 26.6103 4.44 26.3383 4.44C26.0503 4.44 25.7983 4.508 25.5823 4.644C25.3743 4.772 25.2103 4.956 25.0903 5.196C24.9783 5.436 24.9223 5.728 24.9223 6.072C24.9223 6.416 24.9823 6.712 25.1023 6.96C25.2303 7.2 25.4063 7.388 25.6303 7.524C25.8623 7.652 26.1343 7.716 26.4463 7.716C26.7343 7.716 26.9943 7.668 27.2263 7.572C27.4583 7.468 27.6623 7.316 27.8383 7.116L28.8463 8.124C28.5583 8.46 28.2103 8.712 27.8023 8.88C27.3943 9.048 26.9463 9.132 26.4583 9.132ZM34.0045 9L31.9645 5.976L33.9925 3.168H36.0445L33.5965 6.324L33.6565 5.568L36.1645 9H34.0045ZM30.2725 9V0.288H32.1085V9H30.2725ZM38.1252 9L36.1092 3.168H37.9092L39.1572 7.404L38.6292 7.416L40.0092 3.168H41.4972L42.8892 7.416L42.3492 7.404L43.6092 3.168H45.4092L43.3932 9H41.8932L40.5372 4.968H40.9932L39.6132 9H38.1252ZM46.1453 9V3.168H47.9813V9H46.1453ZM47.0693 2.364C46.7813 2.364 46.5413 2.268 46.3493 2.076C46.1653 1.876 46.0733 1.636 46.0733 1.356C46.0733 1.068 46.1653 0.828 46.3493 0.636C46.5413 0.444 46.7813 0.348 47.0693 0.348C47.3573 0.348 47.5933 0.444 47.7773 0.636C47.9613 0.828 48.0533 1.068 48.0533 1.356C48.0533 1.636 47.9613 1.876 47.7773 2.076C47.5933 2.268 47.3573 2.364 47.0693 2.364ZM52.2743 9.132C51.6423 9.132 51.0783 9.004 50.5823 8.748C50.0943 8.484 49.7103 8.12 49.4303 7.656C49.1503 7.192 49.0103 6.668 49.0103 6.084C49.0103 5.5 49.1463 4.98 49.4183 4.524C49.6983 4.06 50.0743 3.696 50.5463 3.432C51.0183 3.168 51.5503 3.036 52.1423 3.036C52.7183 3.036 53.2263 3.16 53.6663 3.408C54.1063 3.656 54.4503 4 54.6983 4.44C54.9543 4.88 55.0823 5.384 55.0823 5.952C55.0823 6.056 55.0743 6.168 55.0583 6.288C55.0503 6.4 55.0303 6.532 54.9983 6.684L49.9703 6.696V5.436L54.2183 5.424L53.4263 5.952C53.4183 5.616 53.3663 5.34 53.2703 5.124C53.1743 4.9 53.0303 4.732 52.8383 4.62C52.6543 4.5 52.4263 4.44 52.1543 4.44C51.8663 4.44 51.6143 4.508 51.3983 4.644C51.1903 4.772 51.0263 4.956 50.9063 5.196C50.7943 5.436 50.7383 5.728 50.7383 6.072C50.7383 6.416 50.7983 6.712 50.9183 6.96C51.0463 7.2 51.2223 7.388 51.4463 7.524C51.6783 7.652 51.9503 7.716 52.2623 7.716C52.5503 7.716 52.8103 7.668 53.0423 7.572C53.2743 7.468 53.4783 7.316 53.6543 7.116L54.6623 8.124C54.3743 8.46 54.0263 8.712 53.6183 8.88C53.2103 9.048 52.7623 9.132 52.2743 9.132ZM56.7876 9V0.756H58.6236V9H56.7876ZM55.4676 4.728V3.168H59.9436V4.728H55.4676ZM63.6353 9.132C63.0033 9.132 62.4393 9.004 61.9433 8.748C61.4553 8.484 61.0713 8.12 60.7913 7.656C60.5113 7.192 60.3713 6.668 60.3713 6.084C60.3713 5.5 60.5073 4.98 60.7793 4.524C61.0593 4.06 61.4353 3.696 61.9073 3.432C62.3793 3.168 62.9113 3.036 63.5033 3.036C64.0793 3.036 64.5873 3.16 65.0273 3.408C65.4673 3.656 65.8113 4 66.0593 4.44C66.3153 4.88 66.4433 5.384 66.4433 5.952C66.4433 6.056 66.4353 6.168 66.4193 6.288C66.4113 6.4 66.3913 6.532 66.3593 6.684L61.3313 6.696V5.436L65.5793 5.424L64.7873 5.952C64.7793 5.616 64.7273 5.34 64.6313 5.124C64.5353 4.9 64.3913 4.732 64.1993 4.62C64.0153 4.5 63.7873 4.44 63.5153 4.44C63.2273 4.44 62.9753 4.508 62.7593 4.644C62.5513 4.772 62.3873 4.956 62.2673 5.196C62.1553 5.436 62.0993 5.728 62.0993 6.072C62.0993 6.416 62.1593 6.712 62.2793 6.96C62.4073 7.2 62.5833 7.388 62.8073 7.524C63.0393 7.652 63.3113 7.716 63.6233 7.716C63.9113 7.716 64.1713 7.668 64.4033 7.572C64.6353 7.468 64.8393 7.316 65.0153 7.116L66.0233 8.124C65.7353 8.46 65.3873 8.712 64.9793 8.88C64.5713 9.048 64.1233 9.132 63.6353 9.132ZM70.2696 9.132C69.6696 9.132 69.1256 9 68.6376 8.736C68.1496 8.472 67.7656 8.108 67.4856 7.644C67.2056 7.18 67.0656 6.66 67.0656 6.084C67.0656 5.5 67.2056 4.98 67.4856 4.524C67.7736 4.06 68.1616 3.696 68.6496 3.432C69.1376 3.168 69.6856 3.036 70.2936 3.036C70.7496 3.036 71.1656 3.116 71.5416 3.276C71.9256 3.428 72.2656 3.66 72.5616 3.972L71.3856 5.148C71.2496 4.996 71.0896 4.884 70.9056 4.812C70.7296 4.74 70.5256 4.704 70.2936 4.704C70.0296 4.704 69.7936 4.764 69.5856 4.884C69.3856 4.996 69.2256 5.156 69.1056 5.364C68.9936 5.564 68.9376 5.8 68.9376 6.072C68.9376 6.344 68.9936 6.584 69.1056 6.792C69.2256 7 69.3896 7.164 69.5976 7.284C69.8056 7.404 70.0376 7.464 70.2936 7.464C70.5336 7.464 70.7456 7.424 70.9296 7.344C71.1216 7.256 71.2856 7.136 71.4216 6.984L72.5856 8.16C72.2816 8.48 71.9376 8.724 71.5536 8.892C71.1696 9.052 70.7416 9.132 70.2696 9.132ZM77.2547 9L75.2147 5.976L77.2427 3.168H79.2947L76.8467 6.324L76.9067 5.568L79.4147 9H77.2547ZM73.5227 9V0.288H75.3587V9H73.5227ZM79.9825 9V3.168H81.8185V9H79.9825ZM80.9065 2.364C80.6185 2.364 80.3785 2.268 80.1865 2.076C80.0025 1.876 79.9105 1.636 79.9105 1.356C79.9105 1.068 80.0025 0.828 80.1865 0.636C80.3785 0.444 80.6185 0.348 80.9065 0.348C81.1945 0.348 81.4305 0.444 81.6145 0.636C81.7985 0.828 81.8905 1.068 81.8905 1.356C81.8905 1.636 81.7985 1.876 81.6145 2.076C81.4305 2.268 81.1945 2.364 80.9065 2.364ZM84.3834 9.132C84.0714 9.132 83.8114 9.024 83.6034 8.808C83.3954 8.592 83.2914 8.332 83.2914 8.028C83.2914 7.708 83.3954 7.444 83.6034 7.236C83.8114 7.02 84.0714 6.912 84.3834 6.912C84.7034 6.912 84.9634 7.02 85.1634 7.236C85.3714 7.444 85.4754 7.708 85.4754 8.028C85.4754 8.332 85.3714 8.592 85.1634 8.808C84.9634 9.024 84.7034 9.132 84.3834 9.132ZM90.3091 9.12C89.9171 9.12 89.5571 9.044 89.2291 8.892C88.9011 8.74 88.6331 8.532 88.4251 8.268C88.2171 7.996 88.0971 7.688 88.0651 7.344V4.884C88.0971 4.54 88.2171 4.228 88.4251 3.948C88.6331 3.668 88.9011 3.448 89.2291 3.288C89.5571 3.128 89.9171 3.048 90.3091 3.048C90.8611 3.048 91.3491 3.18 91.7731 3.444C92.2051 3.708 92.5411 4.068 92.7811 4.524C93.0291 4.98 93.1531 5.5 93.1531 6.084C93.1531 6.668 93.0291 7.188 92.7811 7.644C92.5411 8.1 92.2051 8.46 91.7731 8.724C91.3491 8.988 90.8611 9.12 90.3091 9.12ZM86.9491 11.46V3.168H88.7851V4.668L88.4851 6.084L88.7611 7.5V11.46H86.9491ZM89.9731 7.464C90.2371 7.464 90.4651 7.404 90.6571 7.284C90.8571 7.164 91.0131 7 91.1251 6.792C91.2371 6.584 91.2931 6.348 91.2931 6.084C91.2931 5.812 91.2371 5.572 91.1251 5.364C91.0131 5.156 90.8571 4.996 90.6571 4.884C90.4651 4.764 90.2411 4.704 89.9851 4.704C89.7291 4.704 89.5011 4.764 89.3011 4.884C89.1091 4.996 88.9571 5.156 88.8451 5.364C88.7331 5.572 88.6771 5.812 88.6771 6.084C88.6771 6.348 88.7291 6.584 88.8331 6.792C88.9451 7 89.1011 7.164 89.3011 7.284C89.5011 7.404 89.7251 7.464 89.9731 7.464ZM94.2058 9V0.288H96.0418V9H94.2058Z" fill="url(#paint0_linear_1820_515)"/>
</g>
<defs>
<filter id="filter0_i_1820_515" x="0.647949" y="0.287109" width="95.394" height="11.1738" filterUnits="userSpaceOnUse" color-interpolation-filters="sRGB">
<feFlood flood-opacity="0" result="BackgroundImageFix"/>
<feBlend mode="normal" in="SourceGraphic" in2="BackgroundImageFix" result="shape"/>
<feColorMatrix in="SourceAlpha" type="matrix" values="0 0 0 0 0 0 0 0 0 0 0 0 0 0 0 0 0 0 127 0" result="hardAlpha"/>
<feOffset/>
<feGaussianBlur stdDeviation="2"/>
<feComposite in2="hardAlpha" operator="arithmetic" k2="-1" k3="1"/>
<feColorMatrix type="matrix" values="0 0 0 0 1 0 0 0 0 1 0 0 0 0 1 0 0 0 0.08 0"/>
<feBlend mode="normal" in2="shape" result="effect1_innerShadow_1820_515"/>
</filter>
<linearGradient id="paint0_linear_1820_515" x1="49.0105" y1="-4" x2="49.0646" y2="17.5001" gradientUnits="userSpaceOnUse">
<stop stop-color="white"/>
<stop offset="1" stop-color="#C1C1C1"/>
</linearGradient>
</defs>
</svg>
