<svg width="1521" height="1703" viewBox="0 0 1521 1703" fill="none" xmlns="http://www.w3.org/2000/svg">
<g filter="url(#filter0_i_5_378)">
<path d="M732.639 741.129V1208.27H879.702L879.702 741.129H732.639ZM1031.57 741.129V1014.11C1031.57 1037.82 1024.2 1056.08 1009.46 1068.9C995.365 1082.35 977.744 1089.08 956.597 1089.08C941.859 1089.08 928.723 1085.88 917.188 1079.47C905.654 1073.7 896.362 1065.37 889.314 1054.48C882.906 1043.58 879.702 1030.13 879.702 1014.11L822.991 1039.1C822.991 1076.27 831.001 1107.98 847.021 1134.26C863.041 1161.17 884.828 1181.68 912.382 1195.77C939.937 1210.51 971.015 1217.88 1005.62 1217.88C1038.3 1217.88 1067.46 1210.51 1093.09 1195.77C1119.36 1181.04 1140.19 1160.53 1155.56 1134.26C1170.94 1107.98 1178.63 1076.59 1178.63 1040.06V741.129L1031.57 741.129ZM1330.5 741.129V1014.11C1330.5 1037.82 1323.13 1056.08 1308.39 1068.9C1294.3 1082.35 1276.68 1089.08 1255.53 1089.08C1240.79 1089.08 1227.65 1085.88 1216.12 1079.47C1204.59 1073.7 1195.29 1065.37 1188.25 1054.48C1181.84 1043.58 1178.63 1030.13 1178.63 1014.11L1094.05 1025.64C1095.33 1065.37 1104.62 1099.33 1121.92 1127.53C1139.87 1156.37 1163.25 1178.47 1192.09 1193.85C1221.57 1209.87 1254.57 1217.88 1291.09 1217.88C1326.98 1217.88 1358.7 1210.19 1386.25 1194.81C1414.45 1180.07 1436.55 1158.61 1452.57 1130.41C1469.23 1102.86 1477.56 1069.54 1477.56 1030.45V741.129H1330.5Z" fill="white"/>
</g>
<g filter="url(#filter1_i_5_378)">
<path d="M51.9045 961V493.86H198.967V961H51.9045ZM350.836 961V688.021C350.836 664.311 343.467 646.049 328.729 633.233C314.631 619.776 297.009 613.048 275.863 613.048C261.125 613.048 247.988 616.252 236.454 622.66C224.92 628.427 215.628 636.757 208.579 647.651C202.171 658.544 198.967 672.001 198.967 688.021L142.257 663.03C142.257 625.864 150.267 594.144 166.287 567.872C182.307 540.958 204.094 520.453 231.648 506.355C259.202 491.617 290.281 484.248 324.884 484.248C357.564 484.248 386.721 491.617 412.353 506.355C438.625 521.093 459.451 541.599 474.83 567.872C490.209 594.144 497.899 625.543 497.899 662.069V961H350.836ZM649.768 961V688.021C649.768 664.311 642.398 646.049 627.66 633.233C613.563 619.776 595.941 613.048 574.794 613.048C560.056 613.048 546.92 616.252 535.385 622.66C523.851 628.427 514.56 636.757 507.511 647.651C501.103 658.544 497.899 672.001 497.899 688.021L413.314 676.487C414.595 636.757 423.887 602.795 441.188 574.6C459.131 545.764 482.52 523.657 511.356 508.278C540.832 492.258 573.833 484.248 610.359 484.248C646.243 484.248 677.963 491.937 705.517 507.316C733.712 522.055 755.819 543.521 771.839 571.716C788.5 599.271 796.83 632.592 796.83 671.681V961H649.768Z" fill="white"/>
</g>
<defs>
<filter id="filter0_i_5_378" x="732.639" y="741.129" width="744.926" height="476.752" filterUnits="userSpaceOnUse" color-interpolation-filters="sRGB">
<feFlood flood-opacity="0" result="BackgroundImageFix"/>
<feBlend mode="normal" in="SourceGraphic" in2="BackgroundImageFix" result="shape"/>
<feColorMatrix in="SourceAlpha" type="matrix" values="0 0 0 0 0 0 0 0 0 0 0 0 0 0 0 0 0 0 127 0" result="hardAlpha"/>
<feOffset/>
<feGaussianBlur stdDeviation="160.199"/>
<feComposite in2="hardAlpha" operator="arithmetic" k2="-1" k3="1"/>
<feColorMatrix type="matrix" values="0 0 0 0 1 0 0 0 0 1 0 0 0 0 1 0 0 0 0.08 0"/>
<feBlend mode="normal" in2="shape" result="effect1_innerShadow_5_378"/>
</filter>
<filter id="filter1_i_5_378" x="51.9043" y="484.248" width="744.926" height="476.752" filterUnits="userSpaceOnUse" color-interpolation-filters="sRGB">
<feFlood flood-opacity="0" result="BackgroundImageFix"/>
<feBlend mode="normal" in="SourceGraphic" in2="BackgroundImageFix" result="shape"/>
<feColorMatrix in="SourceAlpha" type="matrix" values="0 0 0 0 0 0 0 0 0 0 0 0 0 0 0 0 0 0 127 0" result="hardAlpha"/>
<feOffset/>
<feGaussianBlur stdDeviation="160.199"/>
<feComposite in2="hardAlpha" operator="arithmetic" k2="-1" k3="1"/>
<feColorMatrix type="matrix" values="0 0 0 0 1 0 0 0 0 1 0 0 0 0 1 0 0 0 0.08 0"/>
<feBlend mode="normal" in2="shape" result="effect1_innerShadow_5_378"/>
</filter>
</defs>
</svg>
